<svg
    viewBox="0 0 44 39"
    fill="none"
    xmlns="http://www.w3.org/2000/svg"
>
    <path
    d="M9.04799 9.19196C9.04799 11.5589 7.12921 13.4777 4.76228 13.4777C2.39534 13.4777 0.476562 11.5589 0.476562 9.19196C0.476562 6.82503 2.39534 4.90625 4.76228 4.90625C7.12921 4.90625 9.04799 6.82503 9.04799 9.19196Z"
    fill="white"
    />
    <path
    d="M9.04799 29.9065C9.04799 32.2734 7.12921 34.1922 4.76228 34.1922C2.39534 34.1922 0.476562 32.2734 0.476562 29.9065C0.476562 27.5395 2.39534 25.6208 4.76228 25.6208C7.12921 25.6208 9.04799 27.5395 9.04799 29.9065Z"
    fill="white"
    />
    <path
    fillRule="evenodd"
    clipRule="evenodd"
    d="M23.6479 0.621094H14.0479V38.4782H25.1622C35.198 38.4782 43.3336 30.3426 43.3336 20.3068C43.3336 9.43469 34.52 0.621094 23.6479 0.621094ZM24.4051 5.62109H19.7622V33.4782H24.4051C32.0976 33.4782 38.3336 27.2422 38.3336 19.5497C38.3336 11.8571 32.0976 5.62109 24.4051 5.62109Z"
    fill="white"
    />
</svg>