<svg width="84" height="32" viewBox="0 0 84 32" fill="none" xmlns="http://www.w3.org/2000/svg">
<path d="M41.5863 15.3274C40.8208 15.0105 39.886 14.7464 38.7817 14.5345H38.7582C37.6853 14.3395 36.8804 14.1605 36.344 13.9975C35.8076 13.8355 35.3857 13.6158 35.0778 13.3391C34.7699 13.0629 34.6165 12.6807 34.6165 12.1926C34.6165 11.4771 34.8769 10.9323 35.3974 10.5584C35.9183 10.1844 36.6045 9.99721 37.4563 9.99721C38.3874 9.99721 39.1402 10.241 39.7165 10.7292C40.2337 11.1675 40.5505 11.7243 40.6669 12.3987C40.6899 12.5331 40.8002 12.6323 40.9325 12.6338L43.5513 12.6541C43.7118 12.6555 43.8404 12.5133 43.8245 12.3483C43.7367 11.4461 43.4481 10.6256 42.9591 9.8874C42.4146 9.06644 41.6651 8.42786 40.7105 7.97215C39.756 7.51692 38.6714 7.28906 37.4563 7.28906C36.3046 7.28906 35.2674 7.5087 34.3442 7.94796C33.4216 8.38722 32.7035 8.99677 32.1905 9.77758C31.6776 10.5584 31.4213 11.4364 31.4213 12.4122C31.4213 13.4857 31.6499 14.3478 32.1075 14.998C32.5651 15.6486 33.1644 16.1406 33.9059 16.4739C34.6474 16.8073 35.5387 17.0714 36.5801 17.2668L36.6983 17.291C37.8022 17.5024 38.6272 17.6897 39.1717 17.8522C39.7161 18.0152 40.1455 18.2426 40.4613 18.5353C40.7767 18.828 40.9344 19.2266 40.9344 19.7307C40.9344 20.4467 40.6505 21.0074 40.0826 21.4137C39.5147 21.8206 38.7807 22.0238 37.8815 22.0238C36.8082 22.0238 35.9409 21.7432 35.2782 21.182C34.6751 20.6716 34.3203 20.0161 34.2138 19.216C34.1955 19.0776 34.0838 18.9726 33.9486 18.9707L31.3331 18.93C31.174 18.9276 31.0454 19.066 31.0576 19.2295C31.1318 20.2135 31.4303 21.1002 31.9531 21.8898C32.5289 22.7601 33.3216 23.4431 34.3316 23.939C35.3411 24.4354 36.5008 24.6831 37.8106 24.6831C39.0252 24.6831 40.114 24.4557 41.0766 24C42.0387 23.5447 42.7924 22.9144 43.3369 22.1094C43.8813 21.3044 44.1535 20.3978 44.1535 19.3891C44.1535 18.3157 43.9165 17.4497 43.4434 16.7908C42.9703 16.1324 42.3508 15.6443 41.5858 15.3269L41.5863 15.3274Z" fill="white"/>
<path d="M57.6684 21.9021H57.2597C57.0231 21.9021 56.8373 21.8372 56.7035 21.7066C56.5693 21.577 56.5022 21.3651 56.5022 21.0724V16.4127C56.5022 14.9329 56.0446 13.8066 55.1299 13.0341C54.2147 12.262 53.1372 11.8682 51.449 11.8682C49.8552 11.8682 48.6101 12.2252 47.6321 12.9242C46.7404 13.5618 46.203 14.4351 46.019 15.5453C45.9904 15.718 46.1171 15.8762 46.2865 15.8762H48.6918C48.8124 15.8762 48.9203 15.7944 48.9523 15.6745C49.0621 15.2638 49.3042 14.9285 49.6788 14.6687C50.1124 14.3678 50.6277 14.2174 51.3064 14.2174C52.5862 14.2174 53.4962 15.0306 53.4962 16.2419V16.6207C53.4962 16.7755 53.3746 16.9008 53.2245 16.9008H51.0459C49.2789 16.9008 47.9376 17.2588 47.0229 17.9743C46.1077 18.6903 45.6501 19.7067 45.6501 21.0235C45.6501 22.1623 46.0683 23.0568 46.9046 23.707C47.5321 24.1947 48.2821 24.4762 49.0541 24.5996C49.644 24.6939 50.2499 24.7282 50.8413 24.6305C51.4608 24.5285 51.9639 24.2653 52.4675 23.8899C52.9199 23.5532 53.2972 23.1216 53.6417 22.5953C53.8097 22.2978 54.2504 22.4173 54.2504 22.7612V23.1749C54.2499 23.9266 54.8408 24.5362 55.5701 24.5362H57.6684C57.8186 24.5362 57.9402 24.4109 57.9402 24.2561V22.1817C57.9402 22.0269 57.8186 21.9016 57.6684 21.9016V21.9021ZM53.4967 19.3894C53.4967 19.9912 53.3742 20.5156 53.1297 20.9626C52.6172 21.9001 51.7001 22.3897 50.6681 22.3897C50.0683 22.3897 49.5872 22.2436 49.2245 21.9509C48.8612 21.6582 48.68 21.2678 48.68 20.7797C48.68 20.2272 48.8814 19.8001 49.2836 19.4992C49.6858 19.1987 50.2574 19.0478 50.9994 19.0478H53.2249C53.3751 19.0478 53.4967 19.1731 53.4967 19.3279V19.3894Z" fill="white"/>
<path d="M66.4367 7.46777H63.3068C61.6558 7.46777 60.3173 8.84749 60.3173 10.5494V11.9035C60.3173 12.0583 60.1957 12.1836 60.0455 12.1836H58.2584C58.1082 12.1836 57.9866 12.3089 57.9866 12.4637V14.5623C57.9866 14.7171 58.1082 14.8424 58.2584 14.8424H60.0455C60.1957 14.8424 60.3173 14.9677 60.3173 15.1225V24.257C60.3173 24.4119 60.4388 24.5372 60.589 24.5372H63.0276C63.1778 24.5372 63.2993 24.4119 63.2993 24.257V15.1225C63.2993 14.9677 63.4209 14.8424 63.5711 14.8424H66.4128C66.563 14.8424 66.6845 14.7171 66.6845 14.5623V12.4637C66.6845 12.3089 66.563 12.1836 66.4128 12.1836H63.5711C63.4209 12.1836 63.2993 12.0583 63.2993 11.9035V10.6868C63.2993 10.3772 63.5429 10.1266 63.8428 10.1266H66.4362C66.5864 10.1266 66.708 10.0013 66.708 9.84648V7.74788C66.708 7.59307 66.5864 7.46777 66.4362 7.46777H66.4367Z" fill="white"/>
<path d="M78.3837 14.706C77.8552 13.7955 77.1329 13.096 76.2182 12.6079C75.3031 12.1202 74.2457 11.8691 73.0471 11.8691C71.8484 11.8691 70.814 12.1405 69.8993 12.6688C68.9842 13.1976 68.2741 13.9455 67.7696 14.913C67.2646 15.8811 67.0121 17.015 67.0121 18.3164C67.0121 19.6177 67.2726 20.7033 67.793 21.6708C68.314 22.6384 69.0593 23.3824 70.0293 23.9029C70.9994 24.4235 72.1394 24.6838 73.4493 24.6838C74.4588 24.6838 75.3622 24.4927 76.1591 24.1105C76.9555 23.7288 77.5985 23.2039 78.0875 22.5373C78.5062 21.9664 78.792 21.3414 78.945 20.6626C78.9849 20.4866 78.8558 20.3172 78.6803 20.3172H76.2304C76.1131 20.3172 76.0103 20.3956 75.9728 20.5103C75.8001 21.0361 75.4955 21.4517 75.0586 21.7565C74.5691 22.098 73.9618 22.2688 73.2362 22.2688C72.6364 22.2688 72.1122 22.1386 71.6626 21.8784C71.213 21.6186 70.8582 21.2524 70.5977 20.7807C70.4949 20.5944 70.4109 20.3975 70.3438 20.1948C70.272 19.9771 70.2203 19.7527 70.1847 19.5253C70.1725 19.446 70.1612 19.3657 70.1518 19.2854C70.1335 19.1199 70.2607 18.9753 70.4222 18.9753H78.8704C79.0074 18.9753 79.1247 18.8708 79.1402 18.73C79.1519 18.6269 79.1599 18.522 79.1642 18.4141C79.1721 18.2191 79.1759 18.0401 79.1759 17.8776C79.1759 16.6744 78.9117 15.6174 78.3832 14.7065L78.3837 14.706ZM75.8451 16.8525H70.554C70.3804 16.8525 70.2494 16.6865 70.2879 16.5119C70.3724 16.1292 70.5188 15.7838 70.7272 15.4742C70.9952 15.0761 71.3425 14.7708 71.7686 14.5594C72.1948 14.348 72.6599 14.242 73.1648 14.242C73.9852 14.242 74.6639 14.4699 75.2003 14.9251C75.6607 15.316 75.9639 15.8443 76.1108 16.5104C76.1492 16.6856 76.0192 16.8525 75.8451 16.8525Z" fill="white"/>
<path d="M24.9734 15.998H22.654C21.9613 15.998 21.4 16.5766 21.4 17.2907V20.7608C21.4 21.4748 20.8387 22.0534 20.1459 22.0534H10.9187C10.226 22.0534 9.66466 22.632 9.66466 23.346V25.7368C9.66466 26.4509 10.226 27.0295 10.9187 27.0295H20.68C21.3727 27.0295 21.9261 26.4509 21.9261 25.7368V23.8187C21.9261 23.1046 22.4874 22.5981 23.1801 22.5981H24.9729C25.6656 22.5981 26.2269 22.0195 26.2269 21.3055V17.2757C26.2269 16.5616 25.6656 15.998 24.9729 15.998H24.9734Z" fill="white"/>
<path d="M9.66419 11.2482C9.66419 10.5342 10.2255 9.95556 10.9182 9.95556H20.1398C20.8326 9.95556 21.3939 9.37697 21.3939 8.66292V6.27213C21.3939 5.55808 20.8326 4.97949 20.1398 4.97949H10.3837C9.69094 4.97949 9.12963 5.55808 9.12963 6.27213V8.11433C9.12963 8.82837 8.56833 9.40696 7.87561 9.40696H6.0908C5.39808 9.40696 4.83678 9.98555 4.83678 10.6996V14.7338C4.83678 15.4478 5.40043 15.9974 6.09314 15.9974H8.41251C9.10523 15.9974 9.66653 15.4188 9.66653 14.7047L9.66419 11.2487V11.2482Z" fill="white"/>
<path d="M14.4404 13.4854H16.6683C17.3943 13.4854 17.9833 14.093 17.9833 14.8409V17.1373C17.9833 17.8857 17.3939 18.4929 16.6683 18.4929H14.4404C13.7144 18.4929 13.1254 17.8852 13.1254 17.1373V14.8409C13.1254 14.0925 13.7149 13.4854 14.4404 13.4854Z" fill="white"/>
</svg>
