<svg
    width="47"
    height="61"
    viewBox="0 0 47 61"
    fill="none"
    xmlns="http://www.w3.org/2000/svg"
  >
    <path
      d="M38.7243 43.635L2.28711 22.6744L9.57458 18.4824L46.0118 39.4428L38.7243 43.635Z"
      fill="#7D7D7D"
    />
    <path
      d="M2.28613 47.8254L9.57462 52.0186V35.2502L31.4371 22.6738V14.2896L9.57462 1.71338L2.28715 5.90543V22.6738L9.57462 18.4818V10.0976L24.1496 18.4818L2.28613 31.058V47.8254Z"
      fill="white"
    />
    <path
      d="M46.0132 14.2913L38.7248 10.0981V26.8665L16.8623 39.4429V47.8271L38.7248 60.4033L46.0123 56.2113V39.4429L38.7248 43.6349V52.0191L24.1498 43.6349L46.0132 31.0587V14.2913Z"
      fill="white"
    />
    <path
      d="M37.2956 42.2068L0.858398 21.2462L8.14587 17.0542L44.5831 38.0146L37.2956 42.2068Z"
      fill="#7D7D7D"
    />
    <path
      d="M0.857422 46.3972L8.14591 50.5904V33.822L30.0084 21.2456V12.8614L8.14591 0.285156L0.858435 4.4772V21.2456L8.14591 17.0536V8.66941L22.7209 17.0536L0.857422 29.6298V46.3972Z"
      fill="white"
    />
    <path
      d="M0.857422 46.3972L8.14591 50.5904V33.822L30.0084 21.2456V12.8614L8.14591 0.285156L0.858435 4.4772V21.2456L8.14591 17.0536V8.66941L22.7209 17.0536L0.857422 29.6298V46.3972Z"
      fill="white"
    />
    <path
      d="M44.5845 12.8631L37.2961 8.66992V25.4383L15.4336 38.0147V46.3989L37.2961 58.9751L44.5836 54.7831V38.0147L37.2961 42.2067V50.5909L22.7211 42.2067L44.5845 29.6305V12.8631Z"
      fill="white"
    />
  </svg>