<svg viewBox="0 0 69 51" fill="none" xmlns="http://www.w3.org/2000/svg">
    <path
      d="M58.0677 23.3724C59.1027 22.5144 59.1435 22.0115 59.1435 21.9285C59.1435 21.8455 59.1027 21.3426 58.0677 20.4846C57.0513 19.642 55.4004 18.7489 53.0962 17.941C49.8624 16.807 45.6602 15.9508 40.8833 15.5453C38.9066 15.7483 36.812 15.8574 34.6435 15.8574C32.475 15.8574 30.3804 15.7483 28.4037 15.5453C23.6267 15.9508 19.4245 16.807 16.1907 17.941C13.8866 18.7489 12.2356 19.642 11.2192 20.4846C10.1843 21.3426 10.1435 21.8455 10.1435 21.9285C10.1435 22.0115 10.1843 22.5144 11.2192 23.3724C12.2356 24.215 13.8866 25.1081 16.1907 25.916C17.8821 26.5091 19.8384 27.0262 22.0032 27.4426C25.9097 26.881 30.1757 26.5719 34.6434 26.5719C39.1111 26.5719 43.3771 26.881 47.2837 27.4426C49.4486 27.0262 51.4048 26.5091 53.0962 25.916C55.4004 25.1081 57.0513 24.215 58.0677 23.3724Z"
      fill="white"
    />
    <path
      fillRule="evenodd"
      clipRule="evenodd"
      d="M34.6435 12.8574C32.463 12.8574 30.3785 12.7419 28.4373 12.5322C25.2372 12.1866 22.4261 11.5852 20.2152 10.8241C18.4247 10.2077 17.1905 9.54167 16.4636 8.95004C16.113 8.66466 15.9577 8.46505 15.8918 8.35742C15.9577 8.2498 16.113 8.05018 16.4636 7.7648C17.1905 7.17318 18.4247 6.50716 20.2152 5.89073C23.7674 4.66787 28.8685 3.85742 34.6435 3.85742C40.4185 3.85742 45.5196 4.66787 49.0718 5.89073C50.8623 6.50716 52.0965 7.17318 52.8234 7.7648C53.174 8.05018 53.3293 8.2498 53.3952 8.35743C53.3293 8.46505 53.174 8.66466 52.8234 8.95004C52.0965 9.54167 50.8623 10.2077 49.0718 10.8241C46.8609 11.5852 44.0498 12.1866 40.8497 12.5322C38.9085 12.7419 36.824 12.8574 34.6435 12.8574ZM53.44 8.26692L53.4404 8.26419C53.4404 8.26419 53.4382 8.26879 53.4362 8.27813L53.4386 8.27133L53.44 8.26692ZM15.8466 8.26419C15.8466 8.26419 15.8488 8.26879 15.8508 8.27813C15.8473 8.26888 15.8466 8.26419 15.8466 8.26419ZM15.8466 8.45065C15.8466 8.45065 15.8473 8.44596 15.8508 8.43671C15.8488 8.44605 15.8466 8.45065 15.8466 8.45065ZM53.4362 8.43671C53.4397 8.44596 53.4404 8.45065 53.4404 8.45065C53.4404 8.45065 53.4382 8.44605 53.4362 8.43671ZM47.3434 30.4837C43.5444 31.1785 39.2248 31.5714 34.6435 31.5714C30.0622 31.5714 25.7425 31.1785 21.9435 30.4837C18.032 31.0726 14.5464 31.9212 11.6632 32.9531C8.7812 33.9845 6.66125 35.1426 5.31895 36.2784C3.96325 37.4255 3.71484 38.2611 3.71484 38.7148C3.71484 39.1685 3.96325 40.0041 5.31895 41.1512C6.66125 42.287 8.7812 43.4451 11.6632 44.4765C17.4012 46.5301 25.5257 47.8577 34.6434 47.8577C43.7612 47.8577 51.8856 46.5301 57.6236 44.4765C60.5056 43.4451 62.6256 42.287 63.9679 41.1512C65.3236 40.0041 65.572 39.1685 65.572 38.7148C65.572 38.2611 65.3236 37.4255 63.9679 36.2784C62.6256 35.1426 60.5056 33.9845 57.6236 32.9531C54.7405 31.9212 51.2549 31.0726 47.3434 30.4837ZM34.6435 28.5714C30.0085 28.5714 25.7015 28.154 22.0032 27.4426C25.9097 26.881 30.1757 26.5719 34.6434 26.5719C39.1111 26.5719 43.3771 26.881 47.2837 27.4426C43.5854 28.154 39.2784 28.5714 34.6435 28.5714Z"
      fill="white"
    />
  </svg>