<svg width="144" height="144" viewBox="0 0 144 144" fill="none" xmlns="http://www.w3.org/2000/svg">
<g clip-path="url(#clip0_2676_73281)">
<rect width="144" height="144" fill="white"/>
<rect width="144" height="144" fill="white"/>
<path d="M48.3271 46.8184H38.7464V86.9201H28.3931C25.6632 86.9201 23.3453 85.9299 21.4394 83.9496C19.5336 81.9693 18.5807 79.546 18.5807 76.6797C18.5807 73.7613 19.5078 71.312 21.3622 69.3316C23.2165 67.3513 25.5601 66.3611 28.3931 66.3611H34.8833V56.5897H28.3931C22.9847 56.5897 18.4004 58.544 14.6402 62.4526C10.8801 66.3611 9 71.1035 9 76.6797C9 82.2559 10.8543 86.9722 14.563 90.8287C18.3231 94.633 22.9589 96.5352 28.4704 96.5352H48.3271V46.8184Z" fill="black"/>
<path d="M81.9923 96.5352H91.4957V56.5897H71.7163C66.3594 56.5897 61.8008 58.544 58.0407 62.4526C54.2805 66.3611 52.4004 71.1035 52.4004 76.6797C52.4004 82.308 54.2547 87.0243 57.9634 90.8287C61.672 94.633 66.2821 96.5352 71.7936 96.5352H78.4382V86.9201H71.7163C68.9863 86.9201 66.6684 85.9299 64.7626 83.9496C62.8567 81.9693 61.9038 79.546 61.9038 76.6797C61.9038 73.7613 62.831 71.338 64.6853 69.4098C66.5911 67.4295 68.9348 66.4393 71.7163 66.4393L82.0696 66.5175L81.9923 96.5352Z" fill="black"/>
<path d="M135.435 76.6797C135.435 71.1035 133.529 66.3872 129.717 62.5307C125.906 58.6743 121.244 56.7461 115.732 56.7461C110.221 56.7461 105.559 58.6743 101.748 62.5307C97.9361 66.3872 96.0303 71.1035 96.0303 76.6797C96.0303 82.2559 97.9104 86.9722 101.671 90.8287C105.482 94.633 110.17 96.5352 115.732 96.5352C121.244 96.5352 125.906 94.633 129.717 90.8287C133.529 87.0243 135.435 82.308 135.435 76.6797ZM125.854 76.6797C125.854 79.5981 124.875 82.0474 122.918 84.0278C121.012 85.956 118.617 86.9201 115.732 86.9201C112.899 86.9201 110.504 85.9299 108.547 83.9496C106.59 81.9693 105.611 79.546 105.611 76.6797C105.611 73.8134 106.59 71.3901 108.547 69.4098C110.504 67.4295 112.899 66.4393 115.732 66.4393C118.565 66.4393 120.909 67.4034 122.763 69.3316C124.669 71.2077 125.854 73.9177 125.854 76.6797Z" fill="black"/>
</g>
<defs>
<clipPath id="clip0_2676_73281">
<rect width="144" height="144" fill="white"/>
</clipPath>
</defs>
</svg>
