<svg preserveAspectRatio="xMidYMid meet" width="100%" height="100%" overflow="visible" style="display: block;" viewBox="0 0 72.4565 13.2235" fill="none" xmlns="http://www.w3.org/2000/svg">
<g id="Vector">
<path d="M64.8892 0H67.3408C67.3601 0.0193052 67.3794 0.0193052 67.3794 0.0579134V10.5595L67.3987 10.656H72.4179C72.4565 10.656 72.4565 10.6753 72.4565 10.6946V13.1656C72.4565 13.2042 72.4565 13.2235 72.4179 13.2235H64.8892C64.8506 13.2235 64.8505 13.2042 64.8505 13.1656V0.0579134C64.8505 0.0193052 64.8699 0 64.8892 0Z" fill="var(--fill-0, white)"/>
<path d="M57.2333 0H61.7505C62.1945 0.424696 62.7158 0.945913 63.3142 1.56365V11.6598C62.8895 12.1038 62.3683 12.6057 61.7505 13.2235H57.2333C56.7893 12.7988 56.2681 12.2776 55.6697 11.6598V1.56365C56.0944 1.11965 56.6156 0.598435 57.2333 0ZM58.2178 2.60609V10.5595L58.2372 10.656H60.7081C60.7467 10.656 60.7467 10.6367 60.7467 10.6174V2.60609C60.7467 2.56748 60.7467 2.56748 60.7081 2.56748H58.2565C58.2372 2.56748 58.2178 2.58678 58.2178 2.60609Z" fill="var(--fill-0, white)"/>
<path d="M48.0524 0H52.5697C53.0137 0.424696 53.5349 0.945913 54.1333 1.56365V11.6598C53.7086 12.1038 53.1874 12.6057 52.5697 13.2235H48.0524C47.6084 12.7988 47.0872 12.2776 46.4888 11.6598V1.56365C46.9135 1.11965 47.4347 0.598435 48.0524 0ZM49.037 2.60609V10.5595L49.0563 10.656H51.5272C51.5658 10.656 51.5658 10.6367 51.5658 10.6174V2.60609C51.5658 2.56748 51.5658 2.56748 51.5272 2.56748H49.0756C49.0563 2.56748 49.037 2.58678 49.037 2.60609Z" fill="var(--fill-0, white)"/>
<path d="M36.6867 0H39.1577C39.177 0.0193052 39.1963 0.0193052 39.1963 0.0579134V4.74887H39.2735L42.034 0H44.949V0.0193052C42.5359 4.20835 41.2811 6.40904 41.1653 6.60209V6.6407C43.4818 10.6367 44.7366 12.8181 44.949 13.2235H42.034C42.0147 13.2042 41.2425 11.8722 39.7368 9.22748H39.6403C39.6403 9.24678 39.4858 9.51704 39.1963 9.99965V13.1656C39.1963 13.2042 39.177 13.2235 39.1577 13.2235H36.6867C36.6481 13.2235 36.6481 13.2042 36.6481 13.1656V0.0579134C36.6481 0.0193052 36.6674 0 36.6867 0Z" fill="var(--fill-0, white)"/>
<path d="M29.0309 0H33.5481C33.9921 0.424696 34.5133 0.945913 35.1117 1.56365V4.22765C35.1117 4.24696 35.0924 4.26626 35.0731 4.26626H32.6022C32.5636 4.26626 32.5443 4.24696 32.5443 4.22765V2.60609C32.5443 2.56748 32.5443 2.56748 32.5057 2.56748H30.054C30.0347 2.56748 30.0154 2.58678 30.0154 2.60609V5.28939C30.0154 5.3087 30.0347 5.328 30.0733 5.34731H33.5674C34.0307 5.79131 34.5519 6.31252 35.1117 6.87235V11.6598C34.687 12.1038 34.1658 12.6057 33.5481 13.2235H29.0309C28.5869 12.7988 28.0657 12.2776 27.4672 11.6598V8.99583C27.4672 8.97652 27.4865 8.95722 27.5058 8.95722H29.9768C30.0154 8.95722 30.0154 8.97652 30.0154 8.99583V10.6174C30.0154 10.6367 30.0347 10.656 30.054 10.656H32.5057C32.5443 10.656 32.5443 10.6367 32.5443 10.6174V7.89548L32.4477 7.87617H29.0309C28.5869 7.45148 28.0657 6.93026 27.4672 6.31252V1.56365C27.8919 1.11965 28.4131 0.598435 29.0309 0Z" fill="var(--fill-0, white)"/>
<path d="M18.3627 0H24.4049C24.8682 0.463305 25.3894 0.965218 25.93 1.54435V11.6791C25.486 12.1424 24.9647 12.6637 24.4049 13.2235H18.3627C18.3241 13.2235 18.3241 13.2042 18.3241 13.1656V0.0579134C18.3241 0.0193052 18.3241 0 18.3627 0ZM20.8722 2.60609V10.6174C20.8722 10.6367 20.8915 10.656 20.9108 10.656H23.3818L23.4011 10.5595V2.664L23.3818 2.56748H20.9108C20.8915 2.56748 20.8722 2.58678 20.8722 2.60609Z" fill="var(--fill-0, white)"/>
<path d="M9.21949 0H11.6711C11.6904 0.0193052 11.7097 0.0193052 11.7097 0.0579134V10.5595L11.7291 10.656H16.7482C16.7868 10.656 16.7868 10.6753 16.7868 10.6946V13.1656C16.7868 13.2042 16.7868 13.2235 16.7482 13.2235H9.21949C9.18088 13.2235 9.18088 13.2042 9.18088 13.1656V0.0579134C9.18088 0.0193052 9.20018 0 9.21949 0Z" fill="var(--fill-0, white)"/>
<path d="M1.56365 0H6.08087C6.52487 0.424696 7.04609 0.945913 7.64452 1.56365V11.6598C7.21983 12.1038 6.69861 12.6057 6.08087 13.2235H1.56365C1.11965 12.7988 0.598435 12.2776 0 11.6598V1.56365C0.424696 1.11965 0.945913 0.598435 1.56365 0ZM2.54817 2.60609V10.5595L2.56748 10.656H5.03844C5.07704 10.656 5.07704 10.6367 5.07704 10.6174V2.60609C5.07704 2.56748 5.07704 2.56748 5.03844 2.56748H2.58678C2.56748 2.56748 2.54817 2.58678 2.54817 2.60609Z" fill="var(--fill-0, white)"/>
</g>
</svg>
