<svg preserveAspectRatio="xMidYMid meet" width="100%" height="100%" overflow="visible" style="display: block;" viewBox="0 0 68.2555 23.6484" fill="none" xmlns="http://www.w3.org/2000/svg">
<g id="Frame 48096354">
<path id="Union" d="M39.0244 12.6816C40.1735 12.7411 41.05 12.8797 41.6543 13.0977C41.7284 13.1244 41.8027 13.1535 41.877 13.1855V12.9189H53.3047V16.1143H47.5986V17.3477H51.2842V19.2197H47.5986V20.4531H54.2109V12.9189H61.1953C62.0571 12.9982 62.7655 13.2261 63.3203 13.6025C63.8751 13.979 64.2815 14.4842 64.5391 15.1182C64.7371 16.069 64.7475 16.8022 64.5693 17.3174C64.391 17.8325 64.0785 18.2636 63.6328 18.6104C63.187 18.9571 62.5479 19.2296 61.7158 19.4277L62.5186 20.4531H68.2539V23.6484H61.4932L58.0898 20.1045V23.6484H44.1064V16.1143H41.877V16.0713L41.3721 16.6338C41.0155 16.3367 40.6983 16.1239 40.4209 15.9951C40.1435 15.8663 39.6877 15.7818 39.0537 15.7422C38.4395 15.8214 37.9885 15.9553 37.7012 16.1436C37.4139 16.3318 37.1613 16.5749 36.9434 16.8721C36.7255 17.1693 36.5868 17.6251 36.5273 18.2393C36.5868 18.8534 36.7254 19.2846 36.9434 19.5322C37.1613 19.7799 37.4338 19.9831 37.7607 20.1416C38.0877 20.3001 38.4399 20.3988 38.8164 20.4385C39.1928 20.4781 39.7201 20.4828 40.3984 20.4531V18.2842H43.6602V23.6484H39.0459C37.9167 23.6484 36.8938 23.4433 35.9775 23.0322C35.0662 22.6162 34.3483 21.994 33.8232 21.167C33.2982 20.3398 33.0352 19.3266 33.0352 18.1279C33.0352 17.3855 33.1568 16.7142 33.3994 16.1143H32.9609V23.6484H29.4688L26.2734 19.6357V23.6484H18.8652L18.1895 21.7168H15.002L14.3252 23.6484H7.28223L3.87891 20.1045V23.6484H0V12.9189H6.98438C7.8462 12.9982 8.5546 13.2261 9.10938 13.6025C9.66412 13.979 10.0705 14.4842 10.3281 15.1182V12.9189H19.334L22.7812 23.2246V12.9189H26.2734L29.4688 16.9316V12.9189H35.9326V13.4697C36.1233 13.3611 36.3131 13.2603 36.5049 13.1719C37.0745 12.9044 37.9148 12.7411 39.0244 12.6816ZM10.4727 16.1143C10.5061 16.5983 10.4684 16.9994 10.3584 17.3174C10.1801 17.8325 9.86758 18.2636 9.42188 18.6104C8.97609 18.9571 8.33697 19.2296 7.50488 19.4277L8.30762 20.4531H11.5264L12.9512 16.1143H10.4727ZM15.1426 19.5469H18.1006L16.6807 15.2969L15.1426 19.5469ZM3.87891 17.5703H6.58301C6.72666 17.5703 6.88334 17.5181 7.05176 17.4141C7.21995 17.3049 7.30943 17.0351 7.31934 16.6045C7.29459 16.1937 7.19271 15.9238 7.01465 15.7949C6.84141 15.6613 6.69501 15.5939 6.57617 15.5938H3.87891V17.5703ZM58.0898 17.5703H60.7939C60.9376 17.5703 61.0943 17.5181 61.2627 17.4141C61.4309 17.3049 61.5204 17.0351 61.5303 16.6045C61.5055 16.1937 61.4036 15.9238 61.2256 15.7949C61.0523 15.6613 60.9059 15.5939 60.7871 15.5938H58.0898V17.5703ZM22.4541 0.237305C23.3159 0.316575 24.0291 0.539769 24.5938 0.90625C24.9369 1.129 25.219 1.40554 25.4414 1.73438V0.238281H34.4473L38.0361 10.9668H33.9785L33.3027 9.03516H30.1152L29.4385 10.9668H25.5898L28.0645 3.43262H26.0205C26.0707 3.74986 26.0862 4.01267 26.0654 4.2207C26.0258 4.6169 25.946 4.98828 25.8271 5.33496C25.7083 5.68171 25.3817 6.08333 24.8467 6.53906C24.3117 6.99479 23.5977 7.2891 22.7061 7.42285H19.3477V10.9668H15.4697V3.43262H12.8545C11.5816 3.39304 11.3935 3.74529 12.29 4.48828C13.8949 5.89505 14.683 7.26233 14.6533 8.58984C14.6235 9.9172 13.8354 10.7092 12.29 10.9668H2.92773V7.77246H8.84277C10.2442 7.81199 10.422 7.42084 9.37695 6.59863C7.65327 5.01363 6.92036 3.55695 7.17773 2.22949C7.43532 0.90193 8.24804 0.238281 9.61523 0.238281H13.2402V0.237305H22.4541ZM43.5127 0C44.6617 0.0594497 45.5383 0.198106 46.1426 0.416016C46.2166 0.442725 46.291 0.471841 46.3652 0.503906V0.238281H57.793V3.43262H52.0869V4.66602H55.7725V6.53906H52.0869V7.77246H58.6992V10.9668H48.5947V3.43262H46.3652V3.39062L45.8604 3.95312C45.5037 3.65591 45.1866 3.44227 44.9092 3.31348C44.6318 3.18474 44.1759 3.10114 43.542 3.06152C42.9278 3.14078 42.4691 3.26706 42.167 3.44043C41.865 3.61378 41.6056 3.8494 41.3877 4.14648C41.1698 4.44366 41.0406 4.88908 41.001 5.4834C41.0406 6.07783 41.1697 6.52407 41.3877 6.82129C41.6056 7.11829 41.865 7.35404 42.167 7.52734C42.4692 7.70072 42.9278 7.82699 43.542 7.90625C44.176 7.86662 44.6318 7.7821 44.9092 7.65332C45.1865 7.52455 45.5038 7.31179 45.8604 7.01465L47.9707 9.3623C47.3565 9.93691 46.7469 10.3328 46.1426 10.5508C45.5383 10.7687 44.6617 10.9073 43.5127 10.9668C42.4031 10.9074 41.5628 10.7469 40.9932 10.4844C40.4236 10.2169 39.8585 9.86458 39.2988 9.42871C38.7443 8.98791 38.3081 8.43792 37.9912 7.7793C37.6793 7.1157 37.5235 6.34807 37.5234 5.47656C37.5234 4.61478 37.6792 3.85406 37.9912 3.19531C38.3082 2.53172 38.7443 1.98175 39.2988 1.5459C39.8585 1.10507 40.4236 0.752767 40.9932 0.490234C41.5628 0.222741 42.4031 0.0594431 43.5127 0ZM30.2559 6.86523H33.2139L31.7939 2.61523L30.2559 6.86523ZM19.3477 4.88965H22.0527C22.1963 4.88961 22.3522 4.83729 22.5205 4.7334C22.6889 4.62442 22.7782 4.35381 22.7881 3.92285C22.7633 3.51193 22.6617 3.24203 22.4834 3.11328C22.3101 2.97959 22.1638 2.91309 22.0449 2.91309H19.3477V4.88965Z" fill="var(--fill-0, white)"/>
</g>
</svg>
