<svg preserveAspectRatio="xMidYMid meet" width="100%" height="100%" overflow="visible" style="display: block;" viewBox="0 0 67.9219 29.6719" fill="none" xmlns="http://www.w3.org/2000/svg">
<g id="Vector">
<path d="M56.8398 28.2656H50.3711L49.5586 19.7188L45.2773 28.2656L45.9805 29.6719H44.5742L39.4961 24.5781L45.9805 11.6562L45.2773 10.2812H54.2617L50.8711 17.0781L57.6992 10.2812H64.7773L55.9805 19.0156L56.8398 28.2656Z" fill="var(--fill-0, white)"/>
<path d="M42.7461 10.2656L43.4336 11.6562L41.6836 15.25H34.0742L35.2773 12.7344H32.3711L29.8398 17.8281H38.8398L39.668 19.1875L35.1055 28.2656H18.918L17.8867 26.5312L20.0742 22.1406H27.668L25.8398 25.7812H28.7617L31.5117 20.2188L22.5898 20.25L21.6523 19L25.3086 11.6562L24.6055 10.2656H42.7461Z" fill="var(--fill-0, white)"/>
<path d="M6.65234 28.2656L15.0117 11.6562L14.3242 10.2656H23.3242L14.3242 28.2656H6.65234Z" fill="var(--fill-0, white)"/>
<path d="M67.9219 0.509766L66.9023 2.53125H64.0547L64.5996 1.43555H63.5098L62.7656 2.92969H66.7031L66.2402 3.86133H62.2969L61.0605 6.33398H62.1504L63.1699 4.30664H66.0234L64.5293 7.26562H57.7383L60.8555 1.02539L60.5977 0.509766H67.9219Z" fill="var(--fill-0, white)"/>
<path d="M50.5898 7.26562L50.332 6.74414L53.1797 1.03711L52.9219 0.509766H56.2969L53.373 6.35742H53.502L57.3926 0.509766H60.2402L56.1035 6.74414L55.043 7.26562H50.5898Z" fill="var(--fill-0, white)"/>
<path d="M51.9668 0.521484L52.2246 1.03125L49.1074 7.26562H46.248L47.7305 4.30664H46.6406L45.1641 7.26562L45.4219 7.78711H44.9062L43.002 5.88281L45.4219 1.03125L45.1641 0.521484H51.9668ZM48.1934 3.38672L49.166 1.44141H48.0703L47.1094 3.38672H48.1934Z" fill="var(--fill-0, white)"/>
<path d="M39.3457 5.61328L41.8945 0.521484L41.6367 0H42.1523L44.0449 1.89258L41.5898 6.76172L40.8398 7.26562H37.1602L37.7637 4.79297L36.1113 7.26562H32.0332L31.8047 6.75L34.6699 1.06055L34.4004 0.533203H37.7695L35.2324 5.60156L38.8008 0.580078H40.5762L39.3457 5.61328Z" fill="var(--fill-0, white)"/>
<path d="M25.834 0.521484H33.9199L33.498 1.43555H30.873L27.9492 7.27734L28.207 7.79297H27.6914L25.7812 5.88281L28.0137 1.43555H25.4238L25.834 0.521484Z" fill="var(--fill-0, white)"/>
<path d="M19.125 7.26562L19.2598 3.75586L17.502 7.27148L17.7598 7.78711H17.2441L15.3457 5.88281L17.7598 1.04883L17.502 0.527344H20.8652L20.7188 4.13672L22.5234 0.527344H25.377L22.0078 7.26562H19.125Z" fill="var(--fill-0, white)"/>
<path d="M13.4297 4.30664L11.6484 7.875L11.9062 8.40234H11.3906L9.48633 6.49805L10.5762 4.3125H8.88867L8.63086 3.78516L10.002 1.04883L9.74414 0.521484H13.1133L11.6719 3.4043H12.7734L14.2031 0.521484H17.0566L15.416 3.81445L14.7598 4.30664H13.4297Z" fill="var(--fill-0, white)"/>
<path d="M2.18555 7.26562L2.16797 7.30664L2.42578 7.82227H1.91016L0 5.91211L0.621094 4.7168H3.46875L2.64844 6.33984H3.7207L4.71094 4.42383L1.3418 3.27539L2.42578 1.04883L2.16797 0.527344H8.94141L9.2168 1.06055L8.41406 2.68359H5.56641L6.16992 1.44727H5.08008L4.33594 2.99414L7.21289 4.02539L7.4707 4.54102L6.10547 7.26562H2.18555Z" fill="var(--fill-0, white)"/>
</g>
</svg>
